<svg width="186" height="186" viewBox="0 0 186 186" fill="none" xmlns="http://www.w3.org/2000/svg">
<g clip-path="url(#clip0_1239_71)">
<g clip-path="url(#clip1_1239_71)">
<path d="M93 162.75C131.522 162.75 162.75 131.522 162.75 93C162.75 54.4781 131.522 23.25 93 23.25C54.4781 23.25 23.25 54.4781 23.25 93C23.25 131.522 54.4781 162.75 93 162.75Z" stroke="#FF859B" stroke-width="9" stroke-linecap="round" stroke-linejoin="round"/>
<path d="M93 116.25C109.051 116.25 122.062 103.238 122.062 87.1875C122.062 71.1367 109.051 58.125 93 58.125C76.9492 58.125 63.9375 71.1367 63.9375 87.1875C63.9375 103.238 76.9492 116.25 93 116.25Z" stroke="#FF859B" stroke-width="9" stroke-linecap="round" stroke-linejoin="round"/>
<path d="M46.354 144.858C50.7323 136.249 57.4073 129.021 65.6401 123.972C73.8728 118.922 83.3422 116.25 92.9999 116.25C102.658 116.25 112.127 118.922 120.36 123.971C128.593 129.021 135.268 136.249 139.646 144.858" stroke="#FF859B" stroke-width="9" stroke-linecap="round" stroke-linejoin="round"/>
</g>
</g>
<defs>
<clipPath id="clip0_1239_71">
<rect width="186" height="186" fill="white"/>
</clipPath>
<clipPath id="clip1_1239_71">
<rect width="186" height="186" fill="white"/>
</clipPath>
</defs>
</svg>
